<svg width="76" height="82" viewBox="0 0 76 82" fill="none" xmlns="http://www.w3.org/2000/svg">
<path d="M9.68842 39.8648L26.4244 11.0215C26.7061 10.536 27.2278 10.2403 27.789 10.2478L46.6616 10.5028C47.8394 10.5187 48.5716 11.7885 47.9955 12.8158L32.7316 40.0369C32.4635 40.5149 32.4672 41.0988 32.7412 41.5734L48.5496 68.9543C49.1528 69.999 48.3869 71.3026 47.1807 71.2842L27.6297 70.9866C27.0833 70.9783 26.5814 70.6834 26.3081 70.2101L9.68674 41.4211C9.40865 40.9394 9.40929 40.3458 9.68842 39.8648Z" fill="#CAEB66"/>
<path d="M9.68842 39.8648L26.4244 11.0215C26.7061 10.536 27.2278 10.2403 27.789 10.2478L46.6616 10.5028C47.8394 10.5187 48.5716 11.7885 47.9955 12.8158L32.7316 40.0369C32.4635 40.5149 32.4672 41.0988 32.7412 41.5734L48.5496 68.9543C49.1528 69.999 48.3869 71.3026 47.1807 71.2842L27.6297 70.9866C27.0833 70.9783 26.5814 70.6834 26.3081 70.2101L9.68674 41.4211C9.40865 40.9394 9.40929 40.3458 9.68842 39.8648Z" fill="#CAEB66"/>
</svg>
